# xmcd
#
# Track frame offsets:
# 150
# 7070
# 16989
# 27096
# 45137
# 54174
# 76757
# 84732
#
# Disc length: 1542 seconds
#
# Revision: 0
# Processed by: cddbd v1.4PL0 Copyright (c) Steve Scherf et al.
# Submitted via: Audion 3.0.2 (http://www.panic.com/audion/)
#
DISCID=48060408
DTITLE=Violent Vickie - Shut Yr Snatch
DYEAR=1900
DGENRE=
TTITLE0=Romanticize the Past
TTITLE1=The Lord Healed Me While I Was Watching TV
TTITLE2=He Doesn't Believe Me
TTITLE3=Shut Yr Snatch
TTITLE4=F-F-Fightin
TTITLE5=Football Anger
TTITLE6=Daddle Diddle
TTITLE7=Loss of Care
EXTD=
EXTT0=
EXTT1=
EXTT2=
EXTT3=
EXTT4=
EXTT5=
EXTT6=
EXTT7=
PLAYORDER=
